<svg xmlns="http://www.w3.org/2000/svg" xmlns:xlink="http://www.w3.org/1999/xlink" width="2303" height="1256" viewBox="0 0 2303 1256" preserveAspectRation='none'>
  <defs>
    <linearGradient id="red-b" x1="100%" x2="0%" y1="0%" y2="100%">
      <stop offset="0%" stop-color="#F96"/>
      <stop offset="100%" stop-color="#FF5E62"/>
    </linearGradient>
    <polygon id="red-a" points="2303 .549 .477 .549 .477 1257 2303 1257"/>
  </defs>
  <g fill="none" fill-rule="evenodd" transform="translate(0 -1)">
    <mask id="red-c" fill="#fff">
      <use xlink:href="#red-a"/>
    </mask>
    <use fill="url(#red-b)" xlink:href="#red-a"/>
    <g fill="#258FE0" fill-opacity=".2" mask="url(#red-c)" opacity=".5">
      <path d="M48.8909985,449.680421 L1520.43423,449.680421 C1520.43423,449.680421 1571.10142,442.892674 1613.64664,484.648605 C1656.19186,526.404536 1648.891,575.754088 1648.891,575.754088 L1648.891,1055.94948 C1648.891,1055.94948 1656.98613,1147.91177 1601.67926,1203.21864 C1546.37239,1258.52551 1440.93504,1249.68042 1440.93504,1249.68042 L48.8909985,1249.68042 L48.8909985,449.680421 Z" transform="rotate(45 2426.234 1003.994)" style="mix-blend-mode:color-burn"/>
    </g>
    <g fill="#258FE0" fill-opacity=".2" mask="url(#red-c)" opacity=".5">
      <path d="M99.3051192,495.454909 C162.640173,432.119855 259.057454,452.375368 259.057454,452.375368 L1651.24971,452.375368 L1651.24971,1252.37537 L202.412309,1252.37537 C202.412309,1252.37537 139.480203,1258.0716 90.0602563,1211.26086 C40.6403093,1164.45012 51.2497144,1109.19365 51.2497144,1109.19365 L51.2497144,653.341705 C51.2497144,653.341705 35.9700654,558.789963 99.3051192,495.454909 Z" transform="rotate(45 530.516 1099.426)" style="mix-blend-mode:color-burn"/>
    </g>
    <g fill="#258FE0" fill-opacity=".2" mask="url(#red-c)" opacity=".5">
      <path d="M48.7471258,449.41751 L1446.23877,449.41751 C1446.23877,449.41751 1523.97847,439.175152 1591.34751,509.821852 C1658.71654,580.468553 1648.74713,661.778374 1648.74713,661.778374 L1648.74713,1116.69452 C1648.74713,1116.69452 1652.94702,1180.29919 1617.43989,1215.80631 C1581.93277,1251.31343 1522.19742,1249.41751 1522.19742,1249.41751 L48.7471258,1249.41751 L48.7471258,449.41751 Z" transform="rotate(-45 1406.115 132.406)" style="mix-blend-mode:color-burn"/>
    </g>
    <g fill="#258FE0" fill-opacity=".2" mask="url(#red-c)" opacity=".5">
      <path d="M48.8866246,448.80185 L1648.88662,448.80185 L1648.88662,1049.99629 C1648.88662,1049.99629 1659.07213,1146.2892 1605.55337,1199.80797 C1552.0346,1253.32673 1455.14178,1243.74114 1455.14178,1243.74114 L48.8866246,1248.80185 L48.8866246,448.80185 Z" transform="rotate(45 2456.98 -29.264)" style="mix-blend-mode:color-burn"/>
    </g>
  </g>
</svg>
